<svg width="61" height="60" viewBox="0 0 61 60" fill="none" xmlns="http://www.w3.org/2000/svg">
<circle cx="30.5" cy="30" r="30" fill="url(#paint0_linear_54_259)"/>
<path d="M34.75 18C34.4526 18.5497 34.1876 19.1174 33.9564 19.6999C31.6844 19.3291 29.3702 19.3291 27.0982 19.6999C26.867 19.1174 26.602 18.5497 26.3046 18C24.1645 18.3774 22.084 19.0532 20.1203 20.009C16.6088 25.2391 15.0163 31.5886 15.6281 37.9202C17.9165 39.6956 20.4849 41.0497 23.22 41.9227C23.8428 41.0737 24.3986 40.1745 24.8821 39.2337C23.9897 38.8942 23.1321 38.4645 22.3215 37.9511C22.5438 37.7984 22.7541 37.6279 22.9504 37.4411C25.314 38.6161 27.9038 39.2262 30.5273 39.2262C33.1508 39.2262 35.7406 38.6161 38.1042 37.4411C38.3138 37.6265 38.5235 37.7965 38.7331 37.9511C37.9181 38.4605 37.0613 38.8949 36.1725 39.2492C36.636 40.2113 37.177 41.1314 37.7897 42C40.5214 41.13 43.0853 39.7755 45.3666 37.9974C45.9931 31.6647 44.3993 25.31 40.8744 20.0863C38.9327 19.1107 36.8728 18.409 34.75 18ZM25.5559 34.3039C24.8066 34.2484 24.1072 33.8955 23.6047 33.3192C23.1021 32.7429 22.8354 31.988 22.8606 31.2131C22.8316 30.4372 23.097 29.6802 23.6003 29.1031C24.1036 28.5259 24.8052 28.1741 25.5559 28.1223C26.3066 28.1741 27.0082 28.5259 27.5115 29.1031C28.0148 29.6802 28.2802 30.4372 28.2513 31.2131C28.2802 31.9891 28.0148 32.746 27.5115 33.3232C27.0082 33.9004 26.3066 34.2522 25.5559 34.3039ZM35.4987 34.3039C34.7494 34.2484 34.05 33.8955 33.5475 33.3192C33.0449 32.7429 32.7782 31.988 32.8034 31.2131C32.7744 30.4372 33.0398 29.6802 33.5431 29.1031C34.0464 28.5259 34.748 28.1741 35.4987 28.1223C36.2508 28.1702 36.9546 28.5209 37.4587 29.099C37.9628 29.677 38.2269 30.4362 38.194 31.2131C38.2269 31.9901 37.9628 32.7493 37.4587 33.3273C36.9546 33.9054 36.2508 34.2561 35.4987 34.3039Z" fill="#2C2C2C"/>
<defs>
<linearGradient id="paint0_linear_54_259" x1="30.5" y1="0" x2="30.5" y2="60" gradientUnits="userSpaceOnUse">
<stop stop-color="#33E1FF"/>
<stop offset="1" stop-color="#28FFEF"/>
</linearGradient>
</defs>
</svg>
