<svg width="61" height="60" viewBox="0 0 61 60" fill="none" xmlns="http://www.w3.org/2000/svg">
<path d="M30.5 0C13.9312 0 0.5 13.4312 0.5 30C0.5 46.5687 13.9312 60 30.5 60C47.0687 60 60.5 46.5687 60.5 30C60.5 13.4312 47.0687 0 30.5 0ZM42.0375 33.8469C42.0375 33.8469 44.6906 36.4656 45.3437 37.6812C45.3625 37.7062 45.3719 37.7312 45.3781 37.7437C45.6437 38.1906 45.7062 38.5375 45.575 38.7969C45.3563 39.2281 44.6062 39.4406 44.35 39.4594H39.6625C39.3375 39.4594 38.6562 39.375 37.8312 38.8062C37.1969 38.3625 36.5719 37.6344 35.9625 36.925C35.0531 35.8687 34.2656 34.9562 33.4719 34.9562C33.3711 34.9561 33.2709 34.9719 33.175 35.0031C32.575 35.1969 31.8062 36.0531 31.8062 38.3344C31.8062 39.0469 31.2437 39.4562 30.8469 39.4562H28.7C27.9687 39.4562 24.1594 39.2 20.7844 35.6406C16.6531 31.2812 12.9344 22.5375 12.9031 22.4562C12.6687 21.8906 13.1531 21.5875 13.6812 21.5875H18.4156C19.0469 21.5875 19.2531 21.9719 19.3969 22.3125C19.5656 22.7094 20.1844 24.2875 21.2 26.0625C22.8469 28.9562 23.8562 30.1312 24.6656 30.1312C24.8174 30.1295 24.9664 30.0909 25.1 30.0187C26.1562 29.4312 25.9594 25.6656 25.9125 24.8844C25.9125 24.7375 25.9094 23.2 25.3687 22.4625C24.9812 21.9281 24.3219 21.725 23.9219 21.65C24.0838 21.4266 24.2971 21.2455 24.5437 21.1219C25.2687 20.7594 26.575 20.7062 27.8719 20.7062H28.5938C30 20.725 30.3625 20.8156 30.8719 20.9437C31.9031 21.1906 31.925 21.8562 31.8344 24.1344C31.8062 24.7812 31.7781 25.5125 31.7781 26.375C31.7781 26.5625 31.7687 26.7625 31.7687 26.975C31.7375 28.1344 31.7 29.45 32.5187 29.9906C32.6255 30.0576 32.749 30.0933 32.875 30.0937C33.1594 30.0937 34.0156 30.0937 36.3344 26.1156C37.0495 24.8352 37.6709 23.5046 38.1937 22.1344C38.2406 22.0531 38.3781 21.8031 38.5406 21.7062C38.6605 21.6451 38.7935 21.614 38.9281 21.6156H44.4937C45.1 21.6156 45.5156 21.7062 45.5937 21.9406C45.7312 22.3125 45.5687 23.4469 43.0281 26.8875L41.8937 28.3844C39.5906 31.4031 39.5906 31.5562 42.0375 33.8469Z" fill="url(#paint0_linear_54_258)"/>
<defs>
<linearGradient id="paint0_linear_54_258" x1="30.5" y1="0" x2="30.5" y2="60" gradientUnits="userSpaceOnUse">
<stop stop-color="#33E1FF"/>
<stop offset="1" stop-color="#28FFEF"/>
</linearGradient>
</defs>
</svg>
