<svg width="60" height="60" viewBox="0 0 60 60" fill="none" xmlns="http://www.w3.org/2000/svg">
<circle cx="30" cy="30" r="30" fill="url(#paint0_linear_54_103)"/>
<path d="M34.25 18C33.9526 18.5497 33.6876 19.1174 33.4564 19.6999C31.1844 19.3291 28.8702 19.3291 26.5982 19.6999C26.367 19.1174 26.102 18.5497 25.8046 18C23.6645 18.3774 21.584 19.0532 19.6203 20.009C16.1088 25.2391 14.5163 31.5886 15.1281 37.9202C17.4165 39.6956 19.9849 41.0497 22.72 41.9227C23.3428 41.0737 23.8986 40.1745 24.3821 39.2337C23.4897 38.8942 22.6321 38.4645 21.8215 37.9511C22.0438 37.7984 22.2541 37.6279 22.4504 37.4411C24.814 38.6161 27.4038 39.2262 30.0273 39.2262C32.6508 39.2262 35.2406 38.6161 37.6042 37.4411C37.8138 37.6265 38.0235 37.7965 38.2331 37.9511C37.4181 38.4605 36.5613 38.8949 35.6725 39.2492C36.136 40.2113 36.677 41.1314 37.2897 42C40.0214 41.13 42.5853 39.7755 44.8666 37.9974C45.4931 31.6647 43.8993 25.31 40.3744 20.0863C38.4327 19.1107 36.3728 18.409 34.25 18ZM25.0559 34.3039C24.3066 34.2484 23.6072 33.8955 23.1047 33.3192C22.6021 32.7429 22.3354 31.988 22.3606 31.2131C22.3316 30.4372 22.597 29.6802 23.1003 29.1031C23.6036 28.5259 24.3052 28.1741 25.0559 28.1223C25.8066 28.1741 26.5082 28.5259 27.0115 29.1031C27.5148 29.6802 27.7802 30.4372 27.7513 31.2131C27.7802 31.9891 27.5148 32.746 27.0115 33.3232C26.5082 33.9004 25.8066 34.2522 25.0559 34.3039ZM34.9987 34.3039C34.2494 34.2484 33.55 33.8955 33.0475 33.3192C32.5449 32.7429 32.2782 31.988 32.3034 31.2131C32.2744 30.4372 32.5398 29.6802 33.0431 29.1031C33.5464 28.5259 34.248 28.1741 34.9987 28.1223C35.7508 28.1702 36.4546 28.5209 36.9587 29.099C37.4628 29.677 37.7269 30.4362 37.694 31.2131C37.7269 31.9901 37.4628 32.7493 36.9587 33.3273C36.4546 33.9054 35.7508 34.2561 34.9987 34.3039Z" fill="#C9AEBD"/>
<defs>
<linearGradient id="paint0_linear_54_103" x1="30" y1="0" x2="30" y2="60" gradientUnits="userSpaceOnUse">
<stop stop-color="#33E1FF"/>
<stop offset="1" stop-color="#28FFEF"/>
</linearGradient>
</defs>
</svg>
